<mxfile host="app.diagrams.net" modified="2021-03-20T09:13:38.312Z" agent="5.0 (Windows NT 10.0; Win64; x64) AppleWebKit/537.36 (KHTML, like Gecko) Chrome/89.0.4389.90 Safari/537.36" etag="tL4Exeqe-7y6fQAnpEAc" version="14.4.9" type="github" pages="2">
  <diagram id="_iXZFt-ZW1JFh69JtHq0" name="高级资格">
    <mxGraphModel dx="2062" dy="1132" grid="1" gridSize="10" guides="1" tooltips="1" connect="1" arrows="1" fold="1" page="1" pageScale="1" pageWidth="827" pageHeight="1169" math="0" shadow="0">
      <root>
        <mxCell id="0" />
        <mxCell id="1" parent="0" />
        <mxCell id="6HjydmgPhZg6hDnkoiEL-1" value="高级资格" style="rounded=0;whiteSpace=wrap;html=1;" vertex="1" parent="1">
          <mxGeometry x="100" y="500" width="120" height="60" as="geometry" />
        </mxCell>
        <mxCell id="6HjydmgPhZg6hDnkoiEL-2" value="信息系统项目管理师" style="rounded=0;whiteSpace=wrap;html=1;" vertex="1" parent="1">
          <mxGeometry x="300" y="260" width="120" height="60" as="geometry" />
        </mxCell>
        <mxCell id="6HjydmgPhZg6hDnkoiEL-3" value="系统分析师" style="rounded=0;whiteSpace=wrap;html=1;" vertex="1" parent="1">
          <mxGeometry x="300" y="380" width="120" height="60" as="geometry" />
        </mxCell>
        <mxCell id="6HjydmgPhZg6hDnkoiEL-4" value="系统架构设计师" style="rounded=0;whiteSpace=wrap;html=1;" vertex="1" parent="1">
          <mxGeometry x="300" y="500" width="120" height="60" as="geometry" />
        </mxCell>
        <mxCell id="6HjydmgPhZg6hDnkoiEL-5" value="网络规划设计师" style="rounded=0;whiteSpace=wrap;html=1;" vertex="1" parent="1">
          <mxGeometry x="300" y="620" width="120" height="60" as="geometry" />
        </mxCell>
        <mxCell id="6HjydmgPhZg6hDnkoiEL-6" value="系统规划与管理师" style="rounded=0;whiteSpace=wrap;html=1;" vertex="1" parent="1">
          <mxGeometry x="300" y="750" width="120" height="60" as="geometry" />
        </mxCell>
        <mxCell id="6HjydmgPhZg6hDnkoiEL-7" value="" style="endArrow=classic;html=1;exitX=1;exitY=0.5;exitDx=0;exitDy=0;entryX=0;entryY=0.5;entryDx=0;entryDy=0;" edge="1" parent="1" source="6HjydmgPhZg6hDnkoiEL-1" target="6HjydmgPhZg6hDnkoiEL-2">
          <mxGeometry width="50" height="50" relative="1" as="geometry">
            <mxPoint x="390" y="600" as="sourcePoint" />
            <mxPoint x="440" y="550" as="targetPoint" />
          </mxGeometry>
        </mxCell>
        <mxCell id="6HjydmgPhZg6hDnkoiEL-8" value="" style="endArrow=classic;html=1;exitX=1;exitY=0.5;exitDx=0;exitDy=0;entryX=0;entryY=0.5;entryDx=0;entryDy=0;" edge="1" parent="1" source="6HjydmgPhZg6hDnkoiEL-1" target="6HjydmgPhZg6hDnkoiEL-3">
          <mxGeometry width="50" height="50" relative="1" as="geometry">
            <mxPoint x="390" y="600" as="sourcePoint" />
            <mxPoint x="440" y="550" as="targetPoint" />
          </mxGeometry>
        </mxCell>
        <mxCell id="6HjydmgPhZg6hDnkoiEL-9" value="" style="endArrow=classic;html=1;exitX=1;exitY=0.5;exitDx=0;exitDy=0;entryX=0;entryY=0.5;entryDx=0;entryDy=0;" edge="1" parent="1" source="6HjydmgPhZg6hDnkoiEL-1" target="6HjydmgPhZg6hDnkoiEL-4">
          <mxGeometry width="50" height="50" relative="1" as="geometry">
            <mxPoint x="390" y="600" as="sourcePoint" />
            <mxPoint x="440" y="550" as="targetPoint" />
          </mxGeometry>
        </mxCell>
        <mxCell id="6HjydmgPhZg6hDnkoiEL-10" value="" style="endArrow=classic;html=1;exitX=1;exitY=0.5;exitDx=0;exitDy=0;entryX=0;entryY=0.5;entryDx=0;entryDy=0;" edge="1" parent="1" source="6HjydmgPhZg6hDnkoiEL-1" target="6HjydmgPhZg6hDnkoiEL-5">
          <mxGeometry width="50" height="50" relative="1" as="geometry">
            <mxPoint x="230" y="540" as="sourcePoint" />
            <mxPoint x="310" y="540" as="targetPoint" />
          </mxGeometry>
        </mxCell>
        <mxCell id="6HjydmgPhZg6hDnkoiEL-11" value="" style="endArrow=classic;html=1;exitX=1;exitY=0.5;exitDx=0;exitDy=0;entryX=0;entryY=0.5;entryDx=0;entryDy=0;" edge="1" parent="1" source="6HjydmgPhZg6hDnkoiEL-1" target="6HjydmgPhZg6hDnkoiEL-6">
          <mxGeometry width="50" height="50" relative="1" as="geometry">
            <mxPoint x="230" y="540" as="sourcePoint" />
            <mxPoint x="310" y="670" as="targetPoint" />
          </mxGeometry>
        </mxCell>
      </root>
    </mxGraphModel>
  </diagram>
  <diagram id="y2ecMz7ngsz2wRFBCTIq" name="中级资格">
    <mxGraphModel dx="2062" dy="1132" grid="1" gridSize="10" guides="1" tooltips="1" connect="1" arrows="1" fold="1" page="1" pageScale="1" pageWidth="827" pageHeight="1169" math="0" shadow="0">
      <root>
        <mxCell id="fFwDNLYf7AdlpGCMq5p9-0" />
        <mxCell id="fFwDNLYf7AdlpGCMq5p9-1" parent="fFwDNLYf7AdlpGCMq5p9-0" />
        <mxCell id="fFwDNLYf7AdlpGCMq5p9-2" value="中级资格" style="rounded=0;whiteSpace=wrap;html=1;" vertex="1" parent="fFwDNLYf7AdlpGCMq5p9-1">
          <mxGeometry y="585" width="120" height="60" as="geometry" />
        </mxCell>
        <mxCell id="fFwDNLYf7AdlpGCMq5p9-3" value="软件评测师" style="rounded=0;whiteSpace=wrap;html=1;" vertex="1" parent="fFwDNLYf7AdlpGCMq5p9-1">
          <mxGeometry x="440" width="120" height="60" as="geometry" />
        </mxCell>
        <mxCell id="fFwDNLYf7AdlpGCMq5p9-4" value="软件设计师" style="rounded=0;whiteSpace=wrap;html=1;" vertex="1" parent="fFwDNLYf7AdlpGCMq5p9-1">
          <mxGeometry x="440" y="90" width="120" height="60" as="geometry" />
        </mxCell>
        <mxCell id="fFwDNLYf7AdlpGCMq5p9-5" value="软件过程能力评估师" style="rounded=0;whiteSpace=wrap;html=1;" vertex="1" parent="fFwDNLYf7AdlpGCMq5p9-1">
          <mxGeometry x="440" y="180" width="120" height="60" as="geometry" />
        </mxCell>
        <mxCell id="fFwDNLYf7AdlpGCMq5p9-6" value="网络工程师" style="rounded=0;whiteSpace=wrap;html=1;" vertex="1" parent="fFwDNLYf7AdlpGCMq5p9-1">
          <mxGeometry x="440" y="1170" width="120" height="60" as="geometry" />
        </mxCell>
        <mxCell id="fFwDNLYf7AdlpGCMq5p9-7" value="多媒体应用设计师" style="rounded=0;whiteSpace=wrap;html=1;" vertex="1" parent="fFwDNLYf7AdlpGCMq5p9-1">
          <mxGeometry x="440" y="270" width="120" height="60" as="geometry" />
        </mxCell>
        <mxCell id="fFwDNLYf7AdlpGCMq5p9-8" value="嵌入式系统工程师" style="rounded=0;whiteSpace=wrap;html=1;" vertex="1" parent="fFwDNLYf7AdlpGCMq5p9-1">
          <mxGeometry x="440" y="360" width="120" height="60" as="geometry" />
        </mxCell>
        <mxCell id="fFwDNLYf7AdlpGCMq5p9-9" value="计算机辅助设计师" style="rounded=0;whiteSpace=wrap;html=1;" vertex="1" parent="fFwDNLYf7AdlpGCMq5p9-1">
          <mxGeometry x="440" y="450" width="120" height="60" as="geometry" />
        </mxCell>
        <mxCell id="fFwDNLYf7AdlpGCMq5p9-10" value="电子商务设计师" style="rounded=0;whiteSpace=wrap;html=1;" vertex="1" parent="fFwDNLYf7AdlpGCMq5p9-1">
          <mxGeometry x="440" y="540" width="120" height="60" as="geometry" />
        </mxCell>
        <mxCell id="fFwDNLYf7AdlpGCMq5p9-11" value="系统集成项目管理工程师" style="rounded=0;whiteSpace=wrap;html=1;" vertex="1" parent="fFwDNLYf7AdlpGCMq5p9-1">
          <mxGeometry x="440" y="630" width="120" height="60" as="geometry" />
        </mxCell>
        <mxCell id="8nx--7oxh7CEkgdJx0cP-0" value="计算机软件" style="rounded=0;whiteSpace=wrap;html=1;" vertex="1" parent="fFwDNLYf7AdlpGCMq5p9-1">
          <mxGeometry x="140" y="90" width="120" height="60" as="geometry" />
        </mxCell>
        <mxCell id="8nx--7oxh7CEkgdJx0cP-1" value="" style="endArrow=classic;html=1;exitDx=0;exitDy=0;entryDx=0;entryDy=0;noEdgeStyle=1;orthogonal=1;edgeStyle=orthogonalEdgeStyle;" edge="1" parent="fFwDNLYf7AdlpGCMq5p9-1" source="fFwDNLYf7AdlpGCMq5p9-2" target="8nx--7oxh7CEkgdJx0cP-0">
          <mxGeometry width="50" height="50" relative="1" as="geometry">
            <mxPoint x="390" y="600" as="sourcePoint" />
            <mxPoint x="440" y="550" as="targetPoint" />
            <Array as="points">
              <mxPoint x="132" y="595" />
              <mxPoint x="208" y="243.75" />
            </Array>
          </mxGeometry>
        </mxCell>
        <mxCell id="8nx--7oxh7CEkgdJx0cP-2" value="" style="endArrow=classic;html=1;exitDx=0;exitDy=0;entryDx=0;entryDy=0;noEdgeStyle=1;orthogonal=1;edgeStyle=orthogonalEdgeStyle;" edge="1" parent="fFwDNLYf7AdlpGCMq5p9-1" source="8nx--7oxh7CEkgdJx0cP-0" target="fFwDNLYf7AdlpGCMq5p9-3">
          <mxGeometry width="50" height="50" relative="1" as="geometry">
            <mxPoint x="390" y="600" as="sourcePoint" />
            <mxPoint x="440" y="550" as="targetPoint" />
            <Array as="points">
              <mxPoint x="352" y="227.08333333333334" />
              <mxPoint x="428" y="30" />
            </Array>
          </mxGeometry>
        </mxCell>
        <mxCell id="8nx--7oxh7CEkgdJx0cP-3" value="" style="endArrow=classic;html=1;exitDx=0;exitDy=0;entryDx=0;entryDy=0;noEdgeStyle=1;orthogonal=1;edgeStyle=orthogonalEdgeStyle;" edge="1" parent="fFwDNLYf7AdlpGCMq5p9-1" source="8nx--7oxh7CEkgdJx0cP-0" target="fFwDNLYf7AdlpGCMq5p9-4">
          <mxGeometry width="50" height="50" relative="1" as="geometry">
            <mxPoint x="330" y="315" as="sourcePoint" />
            <mxPoint x="424" y="110" as="targetPoint" />
            <Array as="points">
              <mxPoint x="354" y="243.75" />
              <mxPoint x="428" y="120" />
            </Array>
          </mxGeometry>
        </mxCell>
        <mxCell id="8nx--7oxh7CEkgdJx0cP-4" value="" style="endArrow=classic;html=1;exitDx=0;exitDy=0;entryDx=0;entryDy=0;noEdgeStyle=1;orthogonal=1;edgeStyle=orthogonalEdgeStyle;" edge="1" parent="fFwDNLYf7AdlpGCMq5p9-1" source="8nx--7oxh7CEkgdJx0cP-0" target="fFwDNLYf7AdlpGCMq5p9-5">
          <mxGeometry width="50" height="50" relative="1" as="geometry">
            <mxPoint x="330" y="315" as="sourcePoint" />
            <mxPoint x="400" y="240" as="targetPoint" />
            <Array as="points">
              <mxPoint x="352" y="260.4166666666667" />
              <mxPoint x="428" y="210" />
            </Array>
          </mxGeometry>
        </mxCell>
        <mxCell id="8nx--7oxh7CEkgdJx0cP-5" value="计算机网络" style="rounded=0;whiteSpace=wrap;html=1;" vertex="1" parent="fFwDNLYf7AdlpGCMq5p9-1">
          <mxGeometry x="220" y="877.5" width="120" height="60" as="geometry" />
        </mxCell>
        <mxCell id="8nx--7oxh7CEkgdJx0cP-6" value="" style="endArrow=classic;html=1;entryDx=0;entryDy=0;exitDx=0;exitDy=0;noEdgeStyle=1;orthogonal=1;edgeStyle=orthogonalEdgeStyle;" edge="1" parent="fFwDNLYf7AdlpGCMq5p9-1" source="fFwDNLYf7AdlpGCMq5p9-2" target="8nx--7oxh7CEkgdJx0cP-5">
          <mxGeometry width="50" height="50" relative="1" as="geometry">
            <mxPoint x="140" y="520" as="sourcePoint" />
            <mxPoint x="210" y="315" as="targetPoint" />
            <Array as="points">
              <mxPoint x="132" y="635" />
              <mxPoint x="208" y="907.5" />
            </Array>
          </mxGeometry>
        </mxCell>
        <mxCell id="8nx--7oxh7CEkgdJx0cP-7" value="" style="endArrow=classic;html=1;entryDx=0;entryDy=0;exitDx=0;exitDy=0;noEdgeStyle=1;orthogonal=1;edgeStyle=orthogonalEdgeStyle;" edge="1" parent="fFwDNLYf7AdlpGCMq5p9-1" source="8nx--7oxh7CEkgdJx0cP-5" target="fFwDNLYf7AdlpGCMq5p9-6">
          <mxGeometry width="50" height="50" relative="1" as="geometry">
            <mxPoint x="160" y="537" as="sourcePoint" />
            <mxPoint x="210" y="520" as="targetPoint" />
            <Array as="points">
              <mxPoint x="352" y="907.5" />
              <mxPoint x="428" y="1200" />
            </Array>
          </mxGeometry>
        </mxCell>
        <mxCell id="8nx--7oxh7CEkgdJx0cP-8" value="计算机应用技术" style="rounded=0;whiteSpace=wrap;html=1;" vertex="1" parent="fFwDNLYf7AdlpGCMq5p9-1">
          <mxGeometry x="220" y="441" width="120" height="60" as="geometry" />
        </mxCell>
        <mxCell id="8nx--7oxh7CEkgdJx0cP-9" value="" style="endArrow=classic;html=1;entryDx=0;entryDy=0;exitDx=0;exitDy=0;noEdgeStyle=1;orthogonal=1;edgeStyle=orthogonalEdgeStyle;" edge="1" parent="fFwDNLYf7AdlpGCMq5p9-1" source="fFwDNLYf7AdlpGCMq5p9-2" target="8nx--7oxh7CEkgdJx0cP-8">
          <mxGeometry width="50" height="50" relative="1" as="geometry">
            <mxPoint x="160" y="537" as="sourcePoint" />
            <mxPoint x="210" y="520" as="targetPoint" />
            <Array as="points">
              <mxPoint x="134" y="605" />
              <mxPoint x="208" y="471" />
            </Array>
          </mxGeometry>
        </mxCell>
        <mxCell id="8nx--7oxh7CEkgdJx0cP-10" value="" style="endArrow=classic;html=1;entryDx=0;entryDy=0;exitDx=0;exitDy=0;noEdgeStyle=1;orthogonal=1;edgeStyle=orthogonalEdgeStyle;" edge="1" parent="fFwDNLYf7AdlpGCMq5p9-1" source="8nx--7oxh7CEkgdJx0cP-8" target="fFwDNLYf7AdlpGCMq5p9-7">
          <mxGeometry width="50" height="50" relative="1" as="geometry">
            <mxPoint x="330" y="520" as="sourcePoint" />
            <mxPoint x="407" y="480" as="targetPoint" />
            <Array as="points">
              <mxPoint x="352" y="452.25" />
              <mxPoint x="428" y="300" />
            </Array>
          </mxGeometry>
        </mxCell>
        <mxCell id="8nx--7oxh7CEkgdJx0cP-11" value="" style="endArrow=classic;html=1;entryDx=0;entryDy=0;exitDx=0;exitDy=0;noEdgeStyle=1;orthogonal=1;edgeStyle=orthogonalEdgeStyle;" edge="1" parent="fFwDNLYf7AdlpGCMq5p9-1" source="8nx--7oxh7CEkgdJx0cP-8" target="fFwDNLYf7AdlpGCMq5p9-8">
          <mxGeometry width="50" height="50" relative="1" as="geometry">
            <mxPoint x="340" y="660" as="sourcePoint" />
            <mxPoint x="413" y="590" as="targetPoint" />
            <Array as="points">
              <mxPoint x="354" y="464.75" />
              <mxPoint x="428" y="390" />
            </Array>
          </mxGeometry>
        </mxCell>
        <mxCell id="8nx--7oxh7CEkgdJx0cP-12" value="" style="endArrow=classic;html=1;entryDx=0;entryDy=0;exitDx=0;exitDy=0;noEdgeStyle=1;orthogonal=1;edgeStyle=orthogonalEdgeStyle;" edge="1" parent="fFwDNLYf7AdlpGCMq5p9-1" source="8nx--7oxh7CEkgdJx0cP-8" target="fFwDNLYf7AdlpGCMq5p9-9">
          <mxGeometry width="50" height="50" relative="1" as="geometry">
            <mxPoint x="340" y="660" as="sourcePoint" />
            <mxPoint x="413" y="690" as="targetPoint" />
            <Array as="points">
              <mxPoint x="354" y="477.25" />
              <mxPoint x="428" y="480" />
            </Array>
          </mxGeometry>
        </mxCell>
        <mxCell id="8nx--7oxh7CEkgdJx0cP-13" value="" style="endArrow=classic;html=1;entryDx=0;entryDy=0;exitDx=0;exitDy=0;noEdgeStyle=1;orthogonal=1;edgeStyle=orthogonalEdgeStyle;" edge="1" parent="fFwDNLYf7AdlpGCMq5p9-1" source="8nx--7oxh7CEkgdJx0cP-8" target="fFwDNLYf7AdlpGCMq5p9-10">
          <mxGeometry width="50" height="50" relative="1" as="geometry">
            <mxPoint x="350" y="670" as="sourcePoint" />
            <mxPoint x="423" y="700" as="targetPoint" />
            <Array as="points">
              <mxPoint x="352" y="489.75" />
              <mxPoint x="428" y="570" />
            </Array>
          </mxGeometry>
        </mxCell>
        <mxCell id="8nx--7oxh7CEkgdJx0cP-14" value="信息系统" style="rounded=0;whiteSpace=wrap;html=1;" vertex="1" parent="fFwDNLYf7AdlpGCMq5p9-1">
          <mxGeometry x="220" y="585" width="120" height="60" as="geometry" />
        </mxCell>
        <mxCell id="8nx--7oxh7CEkgdJx0cP-15" value="" style="endArrow=classic;html=1;entryDx=0;entryDy=0;exitDx=0;exitDy=0;noEdgeStyle=1;orthogonal=1;edgeStyle=orthogonalEdgeStyle;" edge="1" parent="fFwDNLYf7AdlpGCMq5p9-1" source="8nx--7oxh7CEkgdJx0cP-14" target="fFwDNLYf7AdlpGCMq5p9-11">
          <mxGeometry width="50" height="50" relative="1" as="geometry">
            <mxPoint x="340" y="660" as="sourcePoint" />
            <mxPoint x="413" y="860" as="targetPoint" />
            <Array as="points">
              <mxPoint x="352" y="595" />
              <mxPoint x="428" y="660" />
            </Array>
          </mxGeometry>
        </mxCell>
        <mxCell id="8nx--7oxh7CEkgdJx0cP-17" value="信息系统监理师" style="rounded=0;whiteSpace=wrap;html=1;" vertex="1" parent="fFwDNLYf7AdlpGCMq5p9-1">
          <mxGeometry x="440" y="720" width="120" height="60" as="geometry" />
        </mxCell>
        <mxCell id="8nx--7oxh7CEkgdJx0cP-18" value="信息安全工程师" style="rounded=0;whiteSpace=wrap;html=1;" vertex="1" parent="fFwDNLYf7AdlpGCMq5p9-1">
          <mxGeometry x="440" y="810" width="120" height="60" as="geometry" />
        </mxCell>
        <mxCell id="8nx--7oxh7CEkgdJx0cP-19" value="" style="endArrow=classic;html=1;entryDx=0;entryDy=0;exitDx=0;exitDy=0;noEdgeStyle=1;orthogonal=1;edgeStyle=orthogonalEdgeStyle;" edge="1" parent="fFwDNLYf7AdlpGCMq5p9-1" source="8nx--7oxh7CEkgdJx0cP-14" target="8nx--7oxh7CEkgdJx0cP-17">
          <mxGeometry width="50" height="50" relative="1" as="geometry">
            <mxPoint x="330" y="840" as="sourcePoint" />
            <mxPoint x="407" y="940" as="targetPoint" />
            <Array as="points">
              <mxPoint x="354" y="605" />
              <mxPoint x="428" y="750" />
            </Array>
          </mxGeometry>
        </mxCell>
        <mxCell id="8nx--7oxh7CEkgdJx0cP-20" value="" style="endArrow=classic;html=1;entryDx=0;entryDy=0;exitDx=0;exitDy=0;noEdgeStyle=1;orthogonal=1;edgeStyle=orthogonalEdgeStyle;" edge="1" parent="fFwDNLYf7AdlpGCMq5p9-1" source="8nx--7oxh7CEkgdJx0cP-14" target="8nx--7oxh7CEkgdJx0cP-18">
          <mxGeometry width="50" height="50" relative="1" as="geometry">
            <mxPoint x="330" y="840" as="sourcePoint" />
            <mxPoint x="407" y="1010" as="targetPoint" />
            <Array as="points">
              <mxPoint x="356" y="615" />
              <mxPoint x="428" y="840" />
            </Array>
          </mxGeometry>
        </mxCell>
        <mxCell id="8nx--7oxh7CEkgdJx0cP-21" value="数据库系统工程师" style="rounded=0;whiteSpace=wrap;html=1;" vertex="1" parent="fFwDNLYf7AdlpGCMq5p9-1">
          <mxGeometry x="440" y="900" width="120" height="60" as="geometry" />
        </mxCell>
        <mxCell id="8nx--7oxh7CEkgdJx0cP-22" value="" style="endArrow=classic;html=1;exitDx=0;exitDy=0;noEdgeStyle=1;orthogonal=1;edgeStyle=orthogonalEdgeStyle;" edge="1" parent="fFwDNLYf7AdlpGCMq5p9-1" source="8nx--7oxh7CEkgdJx0cP-14" target="8nx--7oxh7CEkgdJx0cP-21">
          <mxGeometry width="50" height="50" relative="1" as="geometry">
            <mxPoint x="330" y="840" as="sourcePoint" />
            <mxPoint x="407" y="1080" as="targetPoint" />
            <Array as="points">
              <mxPoint x="354" y="625" />
              <mxPoint x="428" y="930" />
            </Array>
          </mxGeometry>
        </mxCell>
        <mxCell id="8nx--7oxh7CEkgdJx0cP-23" value="" style="endArrow=classic;html=1;entryDx=0;entryDy=0;exitDx=0;exitDy=0;noEdgeStyle=1;orthogonal=1;edgeStyle=orthogonalEdgeStyle;" edge="1" parent="fFwDNLYf7AdlpGCMq5p9-1" source="fFwDNLYf7AdlpGCMq5p9-2" target="8nx--7oxh7CEkgdJx0cP-14">
          <mxGeometry width="50" height="50" relative="1" as="geometry">
            <mxPoint x="150" y="530" as="sourcePoint" />
            <mxPoint x="220" y="660" as="targetPoint" />
            <Array as="points">
              <mxPoint x="136" y="615" />
              <mxPoint x="208" y="615" />
            </Array>
          </mxGeometry>
        </mxCell>
        <mxCell id="8nx--7oxh7CEkgdJx0cP-24" value="信息系统管理工程师" style="rounded=0;whiteSpace=wrap;html=1;" vertex="1" parent="fFwDNLYf7AdlpGCMq5p9-1">
          <mxGeometry x="440" y="990" width="120" height="60" as="geometry" />
        </mxCell>
        <mxCell id="8nx--7oxh7CEkgdJx0cP-25" value="" style="endArrow=classic;html=1;entryDx=0;entryDy=0;exitDx=0;exitDy=0;noEdgeStyle=1;orthogonal=1;edgeStyle=orthogonalEdgeStyle;" edge="1" parent="fFwDNLYf7AdlpGCMq5p9-1" source="8nx--7oxh7CEkgdJx0cP-14" target="8nx--7oxh7CEkgdJx0cP-24">
          <mxGeometry width="50" height="50" relative="1" as="geometry">
            <mxPoint x="210" y="850" as="sourcePoint" />
            <mxPoint x="302.0689655172414" y="1060" as="targetPoint" />
            <Array as="points">
              <mxPoint x="352" y="635" />
              <mxPoint x="428" y="1020" />
            </Array>
          </mxGeometry>
        </mxCell>
        <mxCell id="8nx--7oxh7CEkgdJx0cP-26" value="信息服务" style="rounded=0;whiteSpace=wrap;html=1;" vertex="1" parent="fFwDNLYf7AdlpGCMq5p9-1">
          <mxGeometry x="220" y="675" width="120" height="60" as="geometry" />
        </mxCell>
        <mxCell id="8nx--7oxh7CEkgdJx0cP-27" value="" style="endArrow=classic;html=1;exitDx=0;exitDy=0;entryDx=0;entryDy=0;noEdgeStyle=1;orthogonal=1;edgeStyle=orthogonalEdgeStyle;" edge="1" parent="fFwDNLYf7AdlpGCMq5p9-1" source="fFwDNLYf7AdlpGCMq5p9-2" target="8nx--7oxh7CEkgdJx0cP-26">
          <mxGeometry width="50" height="50" relative="1" as="geometry">
            <mxPoint x="150" y="530" as="sourcePoint" />
            <mxPoint x="210" y="315" as="targetPoint" />
            <Array as="points">
              <mxPoint x="134" y="625" />
              <mxPoint x="208" y="705" />
            </Array>
          </mxGeometry>
        </mxCell>
        <mxCell id="8nx--7oxh7CEkgdJx0cP-28" value="计算机硬件工程师" style="rounded=0;whiteSpace=wrap;html=1;" vertex="1" parent="fFwDNLYf7AdlpGCMq5p9-1">
          <mxGeometry x="440" y="1080" width="120" height="60" as="geometry" />
        </mxCell>
        <mxCell id="8nx--7oxh7CEkgdJx0cP-29" value="" style="endArrow=classic;html=1;entryDx=0;entryDy=0;exitDx=0;exitDy=0;noEdgeStyle=1;orthogonal=1;edgeStyle=orthogonalEdgeStyle;" edge="1" parent="fFwDNLYf7AdlpGCMq5p9-1" source="8nx--7oxh7CEkgdJx0cP-26" target="8nx--7oxh7CEkgdJx0cP-28">
          <mxGeometry width="50" height="50" relative="1" as="geometry">
            <mxPoint x="140" y="515" as="sourcePoint" />
            <mxPoint x="150" y="150" as="targetPoint" />
            <Array as="points">
              <mxPoint x="352" y="705" />
              <mxPoint x="428" y="1110" />
            </Array>
          </mxGeometry>
        </mxCell>
        <mxCell id="8nx--7oxh7CEkgdJx0cP-30" value="信息技术支持工程师" style="rounded=0;whiteSpace=wrap;html=1;" vertex="1" parent="fFwDNLYf7AdlpGCMq5p9-1">
          <mxGeometry x="600" y="140" width="120" height="60" as="geometry" />
        </mxCell>
        <mxCell id="8nx--7oxh7CEkgdJx0cP-31" value="" style="endArrow=classic;html=1;entryX=0;entryY=0.5;entryDx=0;entryDy=0;" edge="1" parent="fFwDNLYf7AdlpGCMq5p9-1" target="8nx--7oxh7CEkgdJx0cP-30">
          <mxGeometry width="50" height="50" relative="1" as="geometry">
            <mxPoint x="270" y="150" as="sourcePoint" />
            <mxPoint x="340" y="-25" as="targetPoint" />
          </mxGeometry>
        </mxCell>
      </root>
    </mxGraphModel>
  </diagram>
</mxfile>
